<?xml version="1.0" encoding="UTF-8"?> <svg xmlns="http://www.w3.org/2000/svg" width="433" height="217" viewBox="0 0 433 217" fill="none"><path data-figma-bg-blur-radius="60" fill-rule="evenodd" clip-rule="evenodd" d="M381 217C389.284 217 396 210.284 396 202V202C396 190.402 405.402 181 417 181L423 181C428.523 181 433 176.523 433 171L433 20C433 8.95434 424.046 3.45398e-05 413 3.35741e-05L20 -7.83033e-07C8.9543 -1.74868e-06 -1.23296e-05 8.9543 -1.32953e-05 20L9.00454e-06 114L-2.56219e-05 161C-2.56229e-05 161.012 4.89362e-06 161.024 4.89259e-06 161.035L1.31134e-06 202C5.87109e-07 210.284 6.71573 217 15 217L381 217Z" fill="white" fill-opacity="0.3"></path><defs><clipPath id="bgblur_0_1954_18969_clip_path" transform="translate(60 60)"><path fill-rule="evenodd" clip-rule="evenodd" d="M381 217C389.284 217 396 210.284 396 202V202C396 190.402 405.402 181 417 181L423 181C428.523 181 433 176.523 433 171L433 20C433 8.95434 424.046 3.45398e-05 413 3.35741e-05L20 -7.83033e-07C8.9543 -1.74868e-06 -1.23296e-05 8.9543 -1.32953e-05 20L9.00454e-06 114L-2.56219e-05 161C-2.56229e-05 161.012 4.89362e-06 161.024 4.89259e-06 161.035L1.31134e-06 202C5.87109e-07 210.284 6.71573 217 15 217L381 217Z"></path></clipPath></defs></svg> 